<svg xmlns="http://www.w3.org/2000/svg" viewBox="0 0 64 64">
  <defs>
    <radialGradient id="core" cx="32" cy="32" r="20" gradientUnits="userSpaceOnUse">
      <stop offset="0" stop-color="#ffd089"/>
      <stop offset="1" stop-color="#c87f1f"/>
    </radialGradient>
  </defs>
  <polygon points="22,8 42,8 56,22 56,42 42,56 22,56 8,42 8,22"
           fill="none" stroke="#ffa940" stroke-width="2" stroke-linejoin="miter"/>
  <polygon points="26,14 38,14 50,26 50,38 38,50 26,50 14,38 14,26"
           fill="none" stroke="#ffa940" stroke-width="0.75" opacity="0.5"/>
  <g stroke="#ffa940" stroke-width="1.4" stroke-linecap="round" opacity="0.85">
    <line x1="32" y1="32" x2="22" y2="8"/>
    <line x1="32" y1="32" x2="42" y2="8"/>
    <line x1="32" y1="32" x2="22" y2="56"/>
    <line x1="32" y1="32" x2="42" y2="56"/>
  </g>
  <circle cx="32" cy="32" r="2.5" fill="url(#core)"/>
  <polygon points="29,4 35,4 32,1" fill="#ffa940"/>
</svg>
